<svg width="762" height="537" viewBox="0 0 762 537" fill="none" xmlns="http://www.w3.org/2000/svg">
<path d="M580.791 482.19H492.608C462.707 482.19 438.474 457.957 438.474 428.056C438.474 398.154 462.707 373.921 492.608 373.921H580.791C610.692 373.921 634.925 398.154 634.925 428.056C634.925 457.957 610.692 482.19 580.791 482.19Z" fill="#0057A7"/>
<path d="M489.691 477.169C462.567 477.169 440.578 455.18 440.578 428.056C440.578 400.931 462.567 378.943 489.691 378.943C516.816 378.943 538.804 400.931 538.804 428.056C538.804 455.18 516.816 477.169 489.691 477.169Z" fill="white"/>
<path d="M527.635 428.055C527.635 448.996 510.653 465.999 489.691 465.999C489.066 465.999 488.42 465.979 487.795 465.937C467.728 464.978 451.767 448.371 451.767 428.055C451.767 407.739 467.728 391.153 487.795 390.173C488.42 390.153 489.066 390.111 489.691 390.111C510.653 390.111 527.635 407.093 527.635 428.055Z" fill="#005FB7"/>
<path d="M487.795 390.174V465.917C467.729 464.958 451.768 448.351 451.768 428.035C451.768 407.739 467.729 391.132 487.795 390.174Z" fill="#0057A7"/>
<path d="M489.691 445.725C479.932 445.725 472.021 437.814 472.021 428.056C472.021 418.297 479.932 410.386 489.691 410.386C499.45 410.386 507.361 418.297 507.361 428.056C507.361 437.814 499.45 445.725 489.691 445.725Z" fill="#005FB7"/>
<path d="M379.171 456.436H358.793C354.792 456.436 351.541 453.185 351.541 449.184V419.658H386.423V449.184C386.423 453.185 383.172 456.436 379.171 456.436Z" fill="#0057A7"/>
<path d="M349.938 521.725C337.613 519.046 329.794 506.882 332.472 494.557C335.151 482.232 347.315 474.412 359.64 477.091C371.965 479.77 379.785 491.933 377.106 504.259C374.427 516.584 362.264 524.404 349.938 521.725Z" fill="#005FB7"/>
<path d="M377.61 499.307H360.336V456.424H377.61V499.307Z" fill="white"/>
<path d="M398.446 506.028H356.793C353.084 506.028 350.083 503.027 350.083 499.318C350.083 495.609 353.084 492.609 356.793 492.609H398.446V506.028Z" fill="white"/>
<path d="M382.453 521.518C370.175 518.633 362.559 506.341 365.444 494.063C368.329 481.784 380.621 474.169 392.899 477.053C405.178 479.938 412.793 492.23 409.908 504.509C407.024 516.787 394.732 524.402 382.453 521.518Z" fill="#005FB7"/>
<path d="M403.717 499.61C403.717 505.799 399.508 510.841 394.341 510.841C389.152 510.841 384.964 505.82 384.964 499.61C384.964 493.422 389.173 488.379 394.341 488.379C399.529 488.4 403.717 493.422 403.717 499.61Z" fill="white"/>
<path d="M745.154 456.436H724.776C720.775 456.436 717.524 453.185 717.524 449.184V419.658H752.406V449.184C752.385 453.185 749.155 456.436 745.154 456.436Z" fill="#003E86"/>
<path d="M697.987 521.674C685.641 519.098 677.72 507.001 680.295 494.655C682.871 482.308 694.967 474.387 707.314 476.963C719.661 479.538 727.582 491.635 725.006 503.982C722.431 516.328 710.334 524.249 697.987 521.674Z" fill="#005FB7"/>
<path d="M743.594 499.307H726.32V456.424H743.594V499.307Z" fill="#E0D8C6"/>
<path d="M746.279 506.028H704.626C700.917 506.028 697.916 503.027 697.916 499.318C697.916 495.609 700.917 492.609 704.626 492.609H746.279V506.028Z" fill="#E0D8C6"/>
<path d="M766.563 521.524C754.285 518.639 746.669 506.347 749.554 494.069C752.438 481.79 764.73 474.175 777.009 477.059C789.287 479.944 796.903 492.236 794.018 504.514C791.134 516.793 778.842 524.408 766.563 521.524Z" fill="#005FB7"/>
<path d="M730.286 521.527C718.007 518.642 710.392 506.35 713.276 494.072C716.161 481.793 728.453 474.178 740.731 477.062C753.01 479.947 760.625 492.239 757.741 504.517C754.856 516.796 742.564 524.411 730.286 521.527Z" fill="#005FB7"/>
<path d="M751.551 499.61C751.551 505.799 747.341 510.841 742.174 510.841C736.985 510.841 732.797 505.82 732.797 499.61C732.797 493.422 737.006 488.379 742.174 488.379C747.341 488.4 751.551 493.422 751.551 499.61Z" fill="#E0D8C6"/>
<path d="M730.286 521.527C718.007 518.642 710.392 506.35 713.276 494.072C716.161 481.793 728.453 474.178 740.731 477.062C753.01 479.947 760.625 492.239 757.741 504.517C754.856 516.796 742.564 524.411 730.286 521.527Z" fill="#005FB7"/>
<path d="M751.551 499.61C751.551 505.799 747.341 510.841 742.174 510.841C736.985 510.841 732.797 505.82 732.797 499.61C732.797 493.422 737.006 488.379 742.174 488.379C747.341 488.4 751.551 493.422 751.551 499.61Z" fill="#E0D8C6"/>
<path d="M1351.1 221.769C1351.1 226.915 1350.51 232.021 1349.41 237.126C1339.36 283.759 1285.15 329.1 1220.36 363.877C1148.52 402.447 1063.69 428.056 1011.74 428.056H325.954C205.162 428.056 145.943 385.444 133.941 360.127H133.92C132.316 356.751 131.524 353.688 131.586 351.063C131.732 343.165 141.046 322.203 163.655 304.784C169.947 296.47 180.282 289.864 186.721 279.091C208.663 242.335 284.635 209.475 374.401 209.475H1320.67C1337.47 209.475 1351.1 204.974 1351.1 221.769Z" fill="white"/>
<path d="M1349.6 237.126C1347.18 248.461 1342.14 259.672 1334.97 270.715C1327.99 281.467 1319.01 292.032 1308.42 302.263C1295.07 315.202 1279.17 327.621 1261.68 339.29H1261.66C1248.72 347.937 1234.89 356.147 1220.55 363.857C1148.71 402.426 1063.88 428.035 1011.93 428.035H326.163C205.37 428.035 125.752 389.153 131.795 351.042C131.795 351.042 191.868 369.941 256.859 332.581C303.992 305.472 314.348 237.126 490.505 237.126C744.425 237.126 1349.6 237.126 1349.6 237.126Z" fill="#E8F7FF"/>
<path opacity="0.6" d="M1279.6 294.907H396.696C395.32 294.907 394.195 293.782 394.195 292.407C394.195 291.031 395.32 289.906 396.696 289.906H1279.6V294.907Z" fill="white"/>
<path opacity="0.6" d="M1287.06 318.494H402.822C397.217 318.494 392.695 313.952 392.695 308.368C392.695 302.762 397.238 298.241 402.822 298.241H1296.15L1287.06 318.494Z" fill="white"/>
<path d="M1253.49 348.666H684.663V340.769C684.663 331.768 691.956 324.475 700.958 324.475H1253.49V348.666Z" fill="#FF4C30"/>
<path d="M288.572 279.092C288.572 286.197 285.697 292.594 281.05 297.262C276.403 301.908 269.965 304.784 262.88 304.784H163.696C169.989 296.47 177.657 287.739 186.762 279.092H288.572Z" fill="#005FB7"/>
<path d="M201.327 270.136L205.99 273.979L167.698 320.428L163.035 316.585L201.327 270.136Z" fill="white"/>
<path d="M243.072 273.148L248.85 274.917L235.244 319.348L229.466 317.579L243.072 273.148Z" fill="white"/>
<path d="M270.098 272.42L275.977 273.819L265.398 318.252L259.52 316.852L270.098 272.42Z" fill="white"/>
<path d="M171.343 295.261H243.189L262.88 304.784L160.55 307.284L171.343 295.261Z" fill="white"/>
<path d="M428.952 313.368C425.847 313.368 423.326 310.847 423.326 307.742V296.803C423.326 293.698 425.847 291.177 428.952 291.177C432.056 291.177 434.578 293.698 434.578 296.803V307.742C434.578 310.847 432.056 313.368 428.952 313.368Z" fill="#005FB7"/>
<path d="M491.275 313.368C488.171 313.368 485.649 310.847 485.649 307.742V296.803C485.649 293.698 488.171 291.177 491.275 291.177C494.38 291.177 496.901 293.698 496.901 296.803V307.742C496.901 310.847 494.38 313.368 491.275 313.368Z" fill="#005FB7"/>
<path d="M510.029 313.368C506.924 313.368 504.403 310.847 504.403 307.742V296.803C504.403 293.698 506.924 291.177 510.029 291.177C513.134 291.177 515.655 293.698 515.655 296.803V307.742C515.676 310.847 513.155 313.368 510.029 313.368Z" fill="#005FB7"/>
<path d="M528.803 313.368C525.698 313.368 523.177 310.847 523.177 307.742V296.803C523.177 293.698 525.698 291.177 528.803 291.177C531.907 291.177 534.429 293.698 534.429 296.803V307.742C534.429 310.847 531.907 313.368 528.803 313.368Z" fill="#005FB7"/>
<path d="M547.556 313.368C544.451 313.368 541.93 310.847 541.93 307.742V296.803C541.93 293.698 544.451 291.177 547.556 291.177C550.66 291.177 553.182 293.698 553.182 296.803V307.742C553.182 310.847 550.66 313.368 547.556 313.368Z" fill="#005FB7"/>
<path d="M560.266 313.368C557.162 313.368 554.641 310.847 554.641 307.742V296.803C554.641 293.698 557.162 291.177 560.266 291.177C563.371 291.177 565.892 293.698 565.892 296.803V307.742C565.913 310.847 563.392 313.368 560.266 313.368Z" fill="#005FB7"/>
<path d="M579.04 313.368C575.936 313.368 573.414 310.847 573.414 307.742V296.803C573.414 293.698 575.936 291.177 579.04 291.177C582.145 291.177 584.667 293.698 584.667 296.803V307.742C584.667 310.847 582.145 313.368 579.04 313.368Z" fill="#005FB7"/>
<path d="M597.794 313.368C594.689 313.368 592.168 310.847 592.168 307.742V296.803C592.168 293.698 594.689 291.177 597.794 291.177C600.899 291.177 603.42 293.698 603.42 296.803V307.742C603.42 310.847 600.899 313.368 597.794 313.368Z" fill="#005FB7"/>
<path d="M616.568 313.368C613.464 313.368 610.942 310.847 610.942 307.742V296.803C610.942 293.698 613.464 291.177 616.568 291.177C619.673 291.177 622.194 293.698 622.194 296.803V307.742C622.194 310.847 619.673 313.368 616.568 313.368Z" fill="#005FB7"/>
<path d="M635.322 313.368C632.217 313.368 629.696 310.847 629.696 307.742V296.803C629.696 293.698 632.217 291.177 635.322 291.177C638.427 291.177 640.948 293.698 640.948 296.803V307.742C640.948 310.847 638.427 313.368 635.322 313.368Z" fill="#005FB7"/>
<path d="M706.668 331.893H714.045C721.171 331.893 726.984 326.1 726.984 318.953V286.197C726.984 279.071 721.192 273.257 714.045 273.257H706.668C699.542 273.257 693.729 279.05 693.729 286.197H696.75C696.75 280.738 701.188 276.279 706.647 276.279H714.024C719.483 276.279 723.942 280.717 723.942 286.197V318.953C723.942 324.412 719.504 328.851 714.024 328.851H706.647C701.188 328.851 696.75 324.412 696.75 318.953H693.729C693.749 326.1 699.542 331.893 706.668 331.893Z" fill="#4F2149"/>
<path d="M710.377 313.368C707.272 313.368 704.751 310.847 704.751 307.742V296.803C704.751 293.698 707.272 291.177 710.377 291.177C713.482 291.177 716.003 293.698 716.003 296.803V307.742C716.003 310.847 713.482 313.368 710.377 313.368Z" fill="#005FB7"/>
<path d="M766.658 313.368C763.554 313.368 761.032 310.847 761.032 307.742V296.803C761.032 293.698 763.554 291.177 766.658 291.177C769.763 291.177 772.284 293.698 772.284 296.803V307.742C772.284 310.847 769.763 313.368 766.658 313.368Z" fill="#005FB7"/>
<path d="M1261.47 339.29C1252.41 345.374 1242.89 351.209 1233.05 356.814C1228.89 359.21 1224.66 361.565 1220.36 363.857C1148.52 402.426 1063.69 428.035 1011.74 428.035H374.087C374.087 428.035 376.442 339.29 637.238 339.29H1261.47Z" fill="#FF4C30"/>
<path d="M1233.07 356.834C1228.91 359.231 1224.68 361.585 1220.38 363.877C1148.54 402.447 1063.71 428.056 1011.76 428.056H408.552C408.552 428.056 410.823 356.834 661.535 356.834H1233.07Z" fill="#D1CBC2"/>
<path d="M1325.97 282.801C1325.78 283.009 1325.63 283.218 1325.44 283.426C1325.26 283.676 1325.11 283.884 1324.9 284.114C1323.36 286.01 1321.74 287.948 1320.03 289.865C1319.67 290.26 1319.3 290.677 1318.94 291.073C1315.44 294.97 1311.69 298.845 1307.75 302.658C1307.4 302.992 1307.07 303.325 1306.69 303.659C1304.67 305.597 1302.61 307.493 1300.46 309.41C1300.4 309.493 1300.32 309.556 1300.25 309.618C1298.13 311.493 1295.94 313.39 1293.73 315.244C1293.48 315.452 1293.21 315.661 1292.98 315.869C1290.69 317.807 1288.33 319.703 1285.94 321.579C1285.79 321.704 1285.65 321.829 1285.48 321.933C1283.06 323.829 1280.58 325.704 1278.08 327.58C1278.02 327.6 1278 327.663 1277.94 327.705C1275.33 329.601 1272.71 331.518 1270.04 333.414C1269.89 333.497 1269.75 333.602 1269.58 333.727C1254.35 344.437 1237.72 354.522 1220.3 363.857C1148.45 402.426 1063.63 428.035 1011.68 428.035H325.912C325.891 428.035 325.891 428.035 325.85 428.035C219.789 428.035 145.505 398.051 133.128 364.94C169.259 375.13 216.247 381.589 270.819 381.589C270.819 381.589 270.84 381.589 270.881 381.589H1032.56C1090.26 381.589 1184.48 355.981 1264.29 317.411C1283.6 308.076 1302.07 297.949 1319.01 287.281C1319.19 287.156 1319.34 287.072 1319.53 286.947C1321.67 285.593 1323.86 284.197 1325.97 282.801Z" fill="#005FB7"/>
<path d="M1703.41 356.835H694.853V354.043C694.853 345.895 701.458 339.29 709.606 339.29H1685.86C1695.55 339.29 1703.41 347.146 1703.41 356.835Z" fill="white"/>
<path d="M694.853 356.834H1703.41L709.793 371.587C701.583 371.691 694.853 365.065 694.853 356.834Z" fill="#005FB7"/>
<path d="M991.802 397.446H735.443C713.023 397.446 694.832 379.276 694.832 356.834H991.802V397.446Z" fill="#005FB7"/>
<path d="M668.203 333.143V354.271C668.203 368.836 663.994 382.193 657.013 392.57C648.116 405.843 634.697 414.303 619.673 414.303H481.586C499.714 414.303 516.113 405.197 527.99 390.549C534.845 382.047 540.201 371.691 543.472 360.147C545.931 351.708 547.223 342.623 547.223 333.163H668.203V333.143Z" fill="#FBB766"/>
<path d="M543.493 360.127V414.303H481.607C499.735 414.303 516.134 405.198 528.011 390.549C534.867 382.048 540.222 371.671 543.493 360.127Z" fill="#DE9545"/>
<path d="M657.034 348.062V392.549C648.136 405.822 634.717 414.282 619.694 414.282H611.296V348.062H657.034Z" fill="#005FB7"/>
<path d="M653.096 333.143V360.127H543.493C545.951 351.688 547.243 342.603 547.243 333.143H653.096Z" fill="#005FB7"/>
<path d="M668.203 333.143V354.271C668.203 387.423 646.47 414.303 619.694 414.303H604.545C631.363 414.303 653.096 387.423 653.096 354.271V333.143H668.203Z" fill="white"/>
<path d="M616.381 333.143H668.119C668.119 299.408 697.5 272.049 733.735 272.049H668.119H616.381H595.669C568.873 272.049 547.14 292.282 547.14 317.244V333.143H616.381Z" fill="#75C1DD"/>
<path d="M552.036 311.118V321.765H669.265C668.515 325.454 668.119 329.267 668.119 333.122H547.139V317.223C547.139 313.014 547.744 308.971 548.931 305.096H675.433C674.35 307.034 673.37 309.055 672.537 311.118H552.036Z" fill="#75D9FF"/>
<path d="M733.735 272.049C715.628 272.049 699.208 278.883 687.331 289.948C684.852 292.282 682.56 294.782 680.497 297.449H552.036C559.934 282.405 576.499 272.049 595.648 272.049H733.735Z" fill="#75C1DD"/>
<path d="M607.775 272.049C596.773 272.049 597.794 275.424 589.668 281.155C569.394 284.759 559.246 303.471 559.246 317.244V333.143H547.16V317.244C547.16 301.429 555.87 287.552 569.039 279.467C575.27 275.654 582.458 273.153 590.23 272.341C590.814 272.257 591.418 272.216 592.023 272.195C593.231 272.111 594.44 272.07 595.69 272.07H607.775V272.049Z" fill="white"/>
<path d="M635.485 272.049V281.155H473.039V279.467C479.269 275.654 486.458 273.153 494.23 272.341C494.814 272.257 495.418 272.216 496.022 272.195C497.231 272.111 498.439 272.07 499.69 272.07H635.485V272.049Z" fill="white"/>
<path d="M1707.24 536.45H7.89734C3.52161 536.45 0 532.907 0 528.553C0 524.177 3.54248 520.655 7.89734 520.655H1707.24C1711.62 520.655 1715.14 524.198 1715.14 528.553C1715.14 532.907 1711.6 536.45 1707.24 536.45Z" fill="#005FB7"/>
<path opacity="0.47" d="M668.21 350.67H653.104V333.125H668.21V350.67Z" fill="#694164"/>
<path d="M425.242 331.58H432.619C439.745 331.58 445.559 325.787 445.559 318.64V285.905C445.559 278.779 439.766 272.965 432.619 272.965H425.242C418.116 272.965 412.303 278.758 412.303 285.905H415.324C415.324 280.446 419.762 275.987 425.222 275.987H432.598C438.057 275.987 442.496 280.425 442.496 285.905V318.64C442.496 324.099 438.057 328.559 432.598 328.559H425.222C419.762 328.559 415.324 324.12 415.324 318.64H412.303C412.324 325.787 418.116 331.58 425.242 331.58Z" fill="#4F2149"/>
<path d="M611.15 475.501L653.803 450.205C654.428 449.83 654.824 449.163 654.824 448.434C654.824 447.705 654.449 447.038 653.803 446.663L614.13 423.159L653.803 399.655L651.699 396.112L609.045 421.409C608.42 421.784 608.024 422.45 608.024 423.18C608.024 423.909 608.399 424.576 609.045 424.951L648.719 448.455L609.045 471.959L611.15 475.501Z" fill="#004686"/>
<path d="M651.699 475.501L653.803 471.959L614.13 448.455L653.803 424.951C654.428 424.576 654.824 423.909 654.824 423.18C654.824 422.45 654.449 421.784 653.803 421.409L611.15 396.112L609.045 399.655L648.719 423.159L609.045 446.663C608.42 447.038 608.024 447.705 608.024 448.434C608.024 449.163 608.399 449.83 609.045 450.205L651.699 475.501Z" fill="#004686"/>
<path d="M582.75 475.501L625.404 450.205C626.029 449.83 626.425 449.163 626.425 448.434C626.425 447.705 626.05 447.038 625.404 446.663L585.73 423.159L625.404 399.655L623.299 396.112L580.646 421.409C580.021 421.784 579.625 422.45 579.625 423.18C579.625 423.909 580 424.576 580.646 424.951L620.32 448.455L580.646 471.959L582.75 475.501Z" fill="#E0D8C6"/>
<path d="M623.319 475.501L625.424 471.959L585.75 448.455L625.424 424.951C626.049 424.576 626.445 423.909 626.445 423.18C626.445 422.45 626.07 421.784 625.424 421.409L582.77 396.112L580.666 399.655L620.34 423.159L580.666 446.663C580.041 447.038 579.645 447.705 579.645 448.434C579.645 449.163 580.02 449.83 580.666 450.205L623.319 475.501Z" fill="#E0D8C6"/>
<path d="M627.999 517.74H568.072V471.586H627.999V517.74Z" fill="white"/>
<path d="M609.586 517.736H583.185V512.215H609.586V517.736Z" fill="#005FB7"/>
<path d="M694.748 512.237C694.748 504.403 688.831 498.047 681.558 498.047C674.265 498.047 668.369 504.403 668.369 512.237H694.748Z" fill="#005FB7"/>
<path d="M671.994 512.238C671.994 518.259 676.891 523.156 682.913 523.156C688.935 523.156 693.832 518.259 693.832 512.238C693.832 506.216 688.935 501.319 682.913 501.319C676.891 501.319 671.994 506.195 671.994 512.238Z" fill="#005FB7"/>
<path d="M675.266 512.383C675.266 515.342 677.266 517.738 679.746 517.738C682.225 517.738 684.226 515.342 684.226 512.383C684.226 509.424 682.225 507.028 679.746 507.028C677.266 507.007 675.266 509.424 675.266 512.383Z" fill="white"/>
<path d="M744.423 512.237C744.423 504.403 738.506 498.047 731.234 498.047C723.941 498.047 718.044 504.403 718.044 512.237H744.423Z" fill="#005FB7"/>
<path d="M721.69 512.238C721.69 518.259 726.587 523.156 732.609 523.156C738.63 523.156 743.527 518.259 743.527 512.238C743.527 506.216 738.63 501.319 732.609 501.319C726.566 501.319 721.69 506.195 721.69 512.238Z" fill="#005FB7"/>
<path d="M724.94 512.383C724.94 515.342 726.941 517.738 729.42 517.738C731.9 517.738 733.9 515.342 733.9 512.383C733.9 509.424 731.9 507.028 729.42 507.028C726.941 507.007 724.94 509.424 724.94 512.383Z" fill="white"/>
<path d="M609.566 512.237C609.566 504.403 603.649 498.047 596.377 498.047C589.084 498.047 583.187 504.403 583.187 512.237H609.566Z" fill="#005FB7"/>
<path d="M586.833 512.238C586.833 518.259 591.73 523.156 597.752 523.156C603.774 523.156 608.671 518.259 608.671 512.238C608.671 506.216 603.774 501.319 597.752 501.319C591.73 501.319 586.833 506.195 586.833 512.238Z" fill="#005FB7"/>
<path d="M594.563 517.738C592.089 517.738 590.083 515.341 590.083 512.383C590.083 509.425 592.089 507.028 594.563 507.028C597.037 507.028 599.043 509.425 599.043 512.383C599.043 515.341 597.037 517.738 594.563 517.738Z" fill="white"/>
<path d="M706.66 517.74H628V471.586H706.66V517.74Z" fill="#E0D8C6"/>
<path d="M641.108 497.843H634.648V453.21H641.108V497.843Z" fill="white"/>
<path d="M641.114 453.206V451.059C641.114 450.351 640.53 449.768 639.822 449.768H635.967C635.258 449.768 634.675 450.351 634.675 451.059V453.206" fill="#FF4C30"/>
<path d="M775.402 517.738H628V497.797H775.402V517.738Z" fill="#FF4C30"/>
<path d="M850.049 517.738H732.528V497.797H850.049V517.738Z" fill="white"/>
<path d="M711.335 440.829H737.465V456.602H711.335V440.829Z" fill="#9E7C57"/>
<path d="M724.191 440.829H737.465V456.602H724.191V440.829Z" fill="#E0B07C"/>
<path d="M730.005 440.829H732.672V443.704H730.005V440.829Z" fill="#E0D4C8"/>
<path d="M696.916 440.829H723.045V456.602H696.916V440.829Z" fill="#9E7C57"/>
<path d="M709.772 440.829H723.045V456.602H709.772V440.829Z" fill="#E0B07C"/>
<path d="M715.586 440.829H718.253V443.704H715.586V440.829Z" fill="#E0D4C8"/>
<path d="M682.517 440.829H708.647V456.602H682.517V440.829Z" fill="#9E7C57"/>
<path d="M695.374 440.829H708.647V456.602H695.374V440.829Z" fill="#E0B07C"/>
<path d="M701.188 440.829H703.855V443.704H701.188V440.829Z" fill="#E0D4C8"/>
<path d="M650.657 440.829H694.228V456.602H650.657V440.829Z" fill="#9E7C57"/>
<path d="M680.955 440.829H694.228V456.602H680.955V440.829Z" fill="#E0B07C"/>
<path d="M686.768 440.829H689.435V443.704H686.768V440.829Z" fill="#E0D4C8"/>
<path d="M711.335 457.561H737.465V473.334H711.335V457.561Z" fill="#9E7C57"/>
<path d="M724.191 457.561H737.465V473.334H724.191V457.561Z" fill="#E0B07C"/>
<path d="M730.005 457.561H732.672V460.436H730.005V457.561Z" fill="#E0D4C8"/>
<path d="M696.916 457.561H723.045V473.334H696.916V457.561Z" fill="#9E7C57"/>
<path d="M709.772 457.561H723.045V473.334H709.772V457.561Z" fill="#E0B07C"/>
<path d="M715.586 457.561H718.253V460.436H715.586V457.561Z" fill="#E0D4C8"/>
<path d="M682.517 457.561H708.647V473.334H682.517V457.561Z" fill="#9E7C57"/>
<path d="M695.374 457.561H708.647V473.334H695.374V457.561Z" fill="#E0B07C"/>
<path d="M701.188 457.561H703.855V460.436H701.188V457.561Z" fill="#E0D4C8"/>
<path d="M650.657 457.561H694.228V473.334H650.657V457.561Z" fill="#9E7C57"/>
<path d="M680.955 457.561H694.228V473.334H680.955V457.561Z" fill="#E0B07C"/>
<path d="M686.768 457.561H689.435V460.436H686.768V457.561Z" fill="#E0D4C8"/>
<path d="M711.335 474.293H737.465V490.067H711.335V474.293Z" fill="#9E7C57"/>
<path d="M724.191 474.293H737.465V490.067H724.191V474.293Z" fill="#E0B07C"/>
<path d="M730.005 474.293H732.672V477.168H730.005V474.293Z" fill="#E0D4C8"/>
<path d="M696.916 474.293H723.045V490.067H696.916V474.293Z" fill="#9E7C57"/>
<path d="M709.772 474.293H723.045V490.067H709.772V474.293Z" fill="#E0B07C"/>
<path d="M715.586 474.293H718.253V477.168H715.586V474.293Z" fill="#E0D4C8"/>
<path d="M682.517 474.293H708.647V490.067H682.517V474.293Z" fill="#9E7C57"/>
<path d="M695.374 474.293H708.647V490.067H695.374V474.293Z" fill="#E0B07C"/>
<path d="M701.188 474.293H703.855V477.168H701.188V474.293Z" fill="#E0D4C8"/>
<path d="M650.657 474.293H694.228V490.067H650.657V474.293Z" fill="#9E7C57"/>
<path d="M680.955 474.293H694.228V490.067H680.955V474.293Z" fill="#E0B07C"/>
<path d="M686.768 474.293H689.435V477.168H686.768V474.293Z" fill="#E0D4C8"/>
<path d="M737.362 457.569H650.659V456.611H737.362V457.569Z" fill="#7B6043"/>
<path d="M737.362 474.286H650.659V473.328H737.362V474.286Z" fill="#7B6043"/>
<path d="M668.099 490.067H667.245V440.85H668.099V490.067Z" fill="#7B6043"/>
<path d="M659.157 490.067H658.303V440.85H659.157V490.067Z" fill="#7B6043"/>
<path d="M692.665 492.504H740.778V497.839H692.665V492.504Z" fill="#664835"/>
<path d="M648.24 492.504H688.31V497.839H648.24V492.504Z" fill="#664835"/>
<path d="M682.1 492.504H687.372V497.839H682.1V492.504Z" fill="#D39A57"/>
<path d="M687.393 490.066H743.174V492.504H687.393V490.066Z" fill="#EDD1B0"/>
<path d="M687.372 492.504H692.644V497.839H687.372V492.504Z" fill="#EDD1B0"/>
<path d="M715.982 492.504H721.253V497.839H715.982V492.504Z" fill="#EDD1B0"/>
<path d="M737.902 492.504H743.174V497.839H737.902V492.504Z" fill="#EDD1B0"/>
<path d="M710.689 492.504H715.961V497.839H710.689V492.504Z" fill="#D39A57"/>
<path d="M732.631 492.504H737.903V497.839H732.631V492.504Z" fill="#D39A57"/>
<path d="M646.573 490.066H687.372V492.504H646.573V490.066Z" fill="#D39A57"/>
<path d="M646.594 492.504H651.865V497.839H646.594V492.504Z" fill="#D39A57"/>
<path d="M667.389 492.504H671.556V497.839H667.389V492.504Z" fill="#99682E"/>
<path d="M662.138 492.504H667.41V497.839H662.138V492.504Z" fill="#D39A57"/>
<path d="M651.865 492.504H656.033V497.839H651.865V492.504Z" fill="#99682E"/>
<path d="M618.63 384.777H620.985V368.795C620.985 366.857 622.569 365.274 624.507 365.274H670.515C672.453 365.274 674.036 366.857 674.036 368.795V384.777H676.391V368.795C676.391 365.565 673.765 362.94 670.536 362.94H624.527C621.298 362.94 618.672 365.565 618.672 368.795V384.777H618.63Z" fill="#FF6130"/>
<path d="M619.068 373.275H675.182V375.63H619.068V373.275Z" fill="#FF6130"/>
<path d="M641.53 327.767H667.66V343.54H641.53V327.767Z" fill="#9E7C57"/>
<path d="M654.387 327.767H667.66V343.54H654.387V327.767Z" fill="#E0B07C"/>
<path d="M660.2 327.767H662.868V330.642H660.2V327.767Z" fill="#E0D4C8"/>
<path d="M627.112 327.767H653.241V343.54H627.112V327.767Z" fill="#9E7C57"/>
<path d="M639.968 327.767H653.241V343.54H639.968V327.767Z" fill="#E0B07C"/>
<path d="M645.803 327.767H648.47V330.642H645.803V327.767Z" fill="#E0D4C8"/>
<path d="M612.714 327.767H638.844V343.54H612.714V327.767Z" fill="#9E7C57"/>
<path d="M625.57 327.767H638.844V343.54H625.57V327.767Z" fill="#E0B07C"/>
<path d="M631.383 327.767H634.05V330.642H631.383V327.767Z" fill="#E0D4C8"/>
<path d="M580.853 327.767H624.423V343.54H580.853V327.767Z" fill="#9E7C57"/>
<path d="M611.15 327.767H624.423V343.54H611.15V327.767Z" fill="#E0B07C"/>
<path d="M616.963 327.767H619.63V330.642H616.963V327.767Z" fill="#E0D4C8"/>
<path d="M641.53 344.499H667.66V360.273H641.53V344.499Z" fill="#9E7C57"/>
<path d="M654.387 344.499H667.66V360.273H654.387V344.499Z" fill="#E0B07C"/>
<path d="M660.2 344.499H662.868V347.375H660.2V344.499Z" fill="#E0D4C8"/>
<path d="M627.112 344.499H653.241V360.273H627.112V344.499Z" fill="#9E7C57"/>
<path d="M639.968 344.499H653.241V360.273H639.968V344.499Z" fill="#E0B07C"/>
<path d="M645.803 344.499H648.47V347.375H645.803V344.499Z" fill="#E0D4C8"/>
<path d="M612.714 344.499H638.844V360.273H612.714V344.499Z" fill="#9E7C57"/>
<path d="M625.57 344.499H638.844V360.273H625.57V344.499Z" fill="#E0B07C"/>
<path d="M631.383 344.499H634.05V347.375H631.383V344.499Z" fill="#E0D4C8"/>
<path d="M580.853 344.499H624.423V360.273H580.853V344.499Z" fill="#9E7C57"/>
<path d="M611.15 344.499H624.423V360.273H611.15V344.499Z" fill="#E0B07C"/>
<path d="M616.963 344.499H619.63V347.375H616.963V344.499Z" fill="#E0D4C8"/>
<path d="M641.53 361.231H667.66V377.005H641.53V361.231Z" fill="#9E7C57"/>
<path d="M654.387 361.231H667.66V377.005H654.387V361.231Z" fill="#E0B07C"/>
<path d="M660.2 361.231H662.868V364.106H660.2V361.231Z" fill="#E0D4C8"/>
<path d="M627.112 361.231H653.241V377.005H627.112V361.231Z" fill="#9E7C57"/>
<path d="M639.968 361.231H653.241V377.005H639.968V361.231Z" fill="#E0B07C"/>
<path d="M645.803 361.231H648.47V364.107H645.803V361.231Z" fill="#E0D4C8"/>
<path d="M612.714 361.231H638.844V377.005H612.714V361.231Z" fill="#9E7C57"/>
<path d="M625.57 361.231H638.844V377.005H625.57V361.231Z" fill="#E0B07C"/>
<path d="M631.383 361.231H634.05V364.106H631.383V361.231Z" fill="#E0D4C8"/>
<path d="M580.853 361.231H624.423V377.005H580.853V361.231Z" fill="#9E7C57"/>
<path d="M611.15 361.231H624.423V377.005H611.15V361.231Z" fill="#E0B07C"/>
<path d="M616.963 361.231H619.63V364.106H616.963V361.231Z" fill="#E0D4C8"/>
<path d="M667.565 344.491H580.862V343.532H667.565V344.491Z" fill="#7B6043"/>
<path d="M667.565 361.228H580.862V360.27H667.565V361.228Z" fill="#7B6043"/>
<path d="M598.302 377.01H597.447V327.793H598.302V377.01Z" fill="#7B6043"/>
<path d="M589.36 377.01H588.506V327.793H589.36V377.01Z" fill="#7B6043"/>
<path d="M622.861 379.442H670.974V384.777H622.861V379.442Z" fill="#664835"/>
<path d="M578.436 379.442H618.506V384.777H578.436V379.442Z" fill="#664835"/>
<path d="M612.296 379.442H617.568V384.777H612.296V379.442Z" fill="#D39A57"/>
<path d="M617.589 377.004H673.37V379.442H617.589V377.004Z" fill="#EDD1B0"/>
<path d="M617.589 379.442H622.86V384.777H617.589V379.442Z" fill="#EDD1B0"/>
<path d="M646.177 379.442H651.449V384.777H646.177V379.442Z" fill="#EDD1B0"/>
<path d="M668.098 379.442H673.37V384.777H668.098V379.442Z" fill="#EDD1B0"/>
<path d="M640.905 379.442H646.177V384.777H640.905V379.442Z" fill="#D39A57"/>
<path d="M662.826 379.442H668.098V384.777H662.826V379.442Z" fill="#D39A57"/>
<path d="M576.769 377.004H617.568V379.442H576.769V377.004Z" fill="#D39A57"/>
<path d="M576.79 379.442H582.062V384.777H576.79V379.442Z" fill="#D39A57"/>
<path d="M597.607 379.442H601.774V384.777H597.607V379.442Z" fill="#99682E"/>
<path d="M592.334 379.442H597.606V384.777H592.334V379.442Z" fill="#D39A57"/>
<path d="M582.061 379.442H586.229V384.777H582.061V379.442Z" fill="#99682E"/>
<path d="M754.528 440.828H780.658V456.602H754.528V440.828Z" fill="#9E7C57"/>
<path d="M722.67 440.828H766.24V456.602H722.67V440.828Z" fill="#9E7C57"/>
<path d="M752.967 440.828H766.24V456.602H752.967V440.828Z" fill="#E0B07C"/>
<path d="M758.78 440.828H761.447V443.704H758.78V440.828Z" fill="#E0D4C8"/>
<path d="M754.528 457.561H780.658V473.334H754.528V457.561Z" fill="#9E7C57"/>
<path d="M722.67 457.561H766.24V473.334H722.67V457.561Z" fill="#9E7C57"/>
<path d="M752.967 457.561H766.24V473.334H752.967V457.561Z" fill="#E0B07C"/>
<path d="M758.78 457.561H761.447V460.436H758.78V457.561Z" fill="#E0D4C8"/>
<path d="M754.528 474.292H780.658V490.066H754.528V474.292Z" fill="#9E7C57"/>
<path d="M722.67 474.292H766.24V490.066H722.67V474.292Z" fill="#9E7C57"/>
<path d="M752.967 474.292H766.24V490.066H752.967V474.292Z" fill="#E0B07C"/>
<path d="M758.78 474.292H761.447V477.168H758.78V474.292Z" fill="#E0D4C8"/>
<path d="M809.368 457.569H722.665V456.61H809.368V457.569Z" fill="#7B6043"/>
<path d="M809.368 474.286H722.665V473.327H809.368V474.286Z" fill="#7B6043"/>
<path d="M740.126 490.067H739.271V440.85H740.126V490.067Z" fill="#7B6043"/>
<path d="M731.184 490.067H730.329V440.85H731.184V490.067Z" fill="#7B6043"/>
<path d="M720.273 492.504H760.343V497.838H720.273V492.504Z" fill="#664835"/>
<path d="M754.133 492.504H759.405V497.838H754.133V492.504Z" fill="#D39A57"/>
<path d="M759.405 490.066H815.186V492.504H759.405V490.066Z" fill="#EDD1B0"/>
<path d="M759.406 492.504H764.678V497.838H759.406V492.504Z" fill="#EDD1B0"/>
<path d="M718.606 490.066H759.405V492.504H718.606V490.066Z" fill="#D39A57"/>
<path d="M718.606 492.504H723.878V497.838H718.606V492.504Z" fill="#D39A57"/>
<path d="M739.423 492.504H743.59V497.838H739.423V492.504Z" fill="#99682E"/>
<path d="M734.151 492.504H739.422V497.838H734.151V492.504Z" fill="#D39A57"/>
<path d="M723.878 492.504H728.045V497.838H723.878V492.504Z" fill="#99682E"/>
<path d="M628.344 393.162H568.437V384.785H628.344V393.162Z" fill="white"/>
<path d="M678.601 393.162H628.342V384.785H678.601V393.162Z" fill="#E0D8C6"/>
<path d="M690.518 507.757H657.825C652.532 507.757 648.26 503.465 648.26 498.193V497.839H700.103V498.193C700.082 503.486 695.811 507.757 690.518 507.757Z" fill="white"/>
<path d="M691.081 507.757H663.243C658.263 507.757 654.242 503.736 654.242 498.756V497.818H700.062V498.756C700.083 503.736 696.061 507.757 691.081 507.757Z" fill="#E0D8C6"/>
<path d="M663.326 401.28H584.729C580.228 401.28 576.602 397.633 576.602 393.153H671.473C671.452 397.654 667.806 401.28 663.326 401.28Z" fill="#0057A7"/>
<path d="M619.964 401.28H582.645C579.29 401.28 576.581 398.571 576.581 395.216V393.153H626.027V395.216C626.027 398.571 623.319 401.28 619.964 401.28Z" fill="#005FB7"/>
<path d="M569.476 384.777H571.831V368.795C571.831 366.857 573.414 365.274 575.352 365.274H621.381C623.319 365.274 624.902 366.857 624.902 368.795V384.777H627.257V368.795C627.257 365.565 624.632 362.94 621.402 362.94H575.373C572.143 362.94 569.518 365.565 569.518 368.795V384.777H569.476Z" fill="#FF6130"/>
<path d="M569.913 373.275H626.028V375.63H569.913V373.275Z" fill="#FF6130"/>
<path d="M163.258 452.102H185.262V465.396H163.258V452.102Z" fill="#9E7C57"/>
<path d="M174.072 452.102H185.262V465.396H174.072V452.102Z" fill="#E0B07C"/>
<path d="M178.99 452.102H181.24V454.519H178.99V452.102Z" fill="#E0D4C8"/>
<path d="M151.11 452.102H173.114V465.396H151.11V452.102Z" fill="#9E7C57"/>
<path d="M161.924 452.102H173.114V465.396H161.924V452.102Z" fill="#E0B07C"/>
<path d="M166.842 452.102H169.092V454.519H166.842V452.102Z" fill="#E0D4C8"/>
<path d="M138.983 452.102H160.987V465.396H138.983V452.102Z" fill="#9E7C57"/>
<path d="M149.797 452.102H160.987V465.396H149.797V452.102Z" fill="#E0B07C"/>
<path d="M154.694 452.102H156.945V454.519H154.694V452.102Z" fill="#E0D4C8"/>
<path d="M112.123 452.102H148.838V465.396H112.123V452.102Z" fill="#9E7C57"/>
<path d="M137.649 452.102H148.838V465.396H137.649V452.102Z" fill="#E0B07C"/>
<path d="M142.545 452.102H144.796V454.519H142.545V452.102Z" fill="#E0D4C8"/>
<path d="M163.258 466.188H185.262V479.482H163.258V466.188Z" fill="#9E7C57"/>
<path d="M174.072 466.188H185.262V479.482H174.072V466.188Z" fill="#E0B07C"/>
<path d="M178.99 466.188H181.24V468.605H178.99V466.188Z" fill="#E0D4C8"/>
<path d="M151.11 466.188H173.114V479.482H151.11V466.188Z" fill="#9E7C57"/>
<path d="M161.924 466.188H173.114V479.482H161.924V466.188Z" fill="#E0B07C"/>
<path d="M166.842 466.188H169.092V468.605H166.842V466.188Z" fill="#E0D4C8"/>
<path d="M138.983 466.188H160.987V479.482H138.983V466.188Z" fill="#9E7C57"/>
<path d="M149.797 466.188H160.987V479.482H149.797V466.188Z" fill="#E0B07C"/>
<path d="M154.694 466.188H156.945V468.605H154.694V466.188Z" fill="#E0D4C8"/>
<path d="M112.123 466.188H148.838V479.482H112.123V466.188Z" fill="#9E7C57"/>
<path d="M137.649 466.188H148.838V479.482H137.649V466.188Z" fill="#E0B07C"/>
<path d="M142.545 466.188H144.796V468.605H142.545V466.188Z" fill="#E0D4C8"/>
<path d="M163.258 480.294H185.262V493.588H163.258V480.294Z" fill="#9E7C57"/>
<path d="M174.072 480.294H185.262V493.588H174.072V480.294Z" fill="#E0B07C"/>
<path d="M178.99 480.294H181.24V482.712H178.99V480.294Z" fill="#E0D4C8"/>
<path d="M151.11 480.294H173.114V493.588H151.11V480.294Z" fill="#9E7C57"/>
<path d="M161.924 480.294H173.114V493.588H161.924V480.294Z" fill="#E0B07C"/>
<path d="M166.842 480.294H169.092V482.712H166.842V480.294Z" fill="#E0D4C8"/>
<path d="M138.983 480.294H160.987V493.588H138.983V480.294Z" fill="#9E7C57"/>
<path d="M149.797 480.294H160.987V493.588H149.797V480.294Z" fill="#E0B07C"/>
<path d="M154.694 480.294H156.945V482.712H154.694V480.294Z" fill="#E0D4C8"/>
<path d="M112.123 480.294H148.838V493.588H112.123V480.294Z" fill="#9E7C57"/>
<path d="M137.649 480.294H148.838V493.588H137.649V480.294Z" fill="#E0B07C"/>
<path d="M142.545 480.294H144.796V482.712H142.545V480.294Z" fill="#E0D4C8"/>
<path d="M185.188 466.196H112.133V465.404H185.188V466.196Z" fill="#7B6043"/>
<path d="M185.188 480.291H112.133V479.499H185.188V480.291Z" fill="#7B6043"/>
<path d="M126.823 493.58H126.115V452.114H126.823V493.58Z" fill="#7B6043"/>
<path d="M119.281 493.58H118.572V452.114H119.281V493.58Z" fill="#7B6043"/>
<path d="M147.506 495.631H188.055V500.132H147.506V495.631Z" fill="#664835"/>
<path d="M110.103 495.631H143.859V500.132H110.103V495.631Z" fill="#664835"/>
<path d="M138.629 495.631H143.067V500.132H138.629V495.631Z" fill="#D39A57"/>
<path d="M143.067 493.568H190.076V495.631H143.067V493.568Z" fill="#EDD1B0"/>
<path d="M143.068 495.631H147.506V500.132H143.068V495.631Z" fill="#EDD1B0"/>
<path d="M167.155 495.631H171.594V500.132H167.155V495.631Z" fill="#EDD1B0"/>
<path d="M185.637 495.631H190.076V500.132H185.637V495.631Z" fill="#EDD1B0"/>
<path d="M162.717 495.631H167.155V500.132H162.717V495.631Z" fill="#D39A57"/>
<path d="M181.199 495.631H185.637V500.132H181.199V495.631Z" fill="#D39A57"/>
<path d="M108.707 493.568H143.067V495.631H108.707V493.568Z" fill="#D39A57"/>
<path d="M108.707 495.631H113.145V500.132H108.707V495.631Z" fill="#D39A57"/>
<path d="M126.251 495.631H129.752V500.132H126.251V495.631Z" fill="#99682E"/>
<path d="M121.792 495.631H126.23V500.132H121.792V495.631Z" fill="#D39A57"/>
<path d="M113.145 495.631H116.646V500.132H113.145V495.631Z" fill="#99682E"/>
<path d="M43.1953 512.259C43.1953 505.653 48.1752 500.298 54.3222 500.298C60.4691 500.298 65.4492 505.653 65.4492 512.259H43.1953Z" fill="#005FB7"/>
<path d="M53.1558 521.448C48.0807 521.448 43.9667 517.333 43.9667 512.258C43.9667 507.183 48.0807 503.069 53.1558 503.069C58.2308 503.069 62.345 507.183 62.345 512.258C62.345 517.333 58.2308 521.448 53.1558 521.448Z" fill="#005FB7"/>
<path d="M55.8435 516.906C53.7605 516.906 52.072 514.881 52.072 512.384C52.072 509.887 53.7605 507.862 55.8435 507.862C57.9264 507.862 59.615 509.887 59.615 512.384C59.615 514.881 57.9264 516.906 55.8435 516.906Z" fill="white"/>
<path d="M172.426 512.259C172.426 505.653 177.406 500.298 183.553 500.298C189.7 500.298 194.68 505.653 194.68 512.259H172.426Z" fill="#005FB7"/>
<path d="M182.387 521.448C177.312 521.448 173.198 517.333 173.198 512.258C173.198 507.183 177.312 503.069 182.387 503.069C187.462 503.069 191.576 507.183 191.576 512.258C191.576 517.333 187.462 521.448 182.387 521.448Z" fill="#005FB7"/>
<path d="M188.846 512.384C188.846 514.884 187.158 516.906 185.074 516.906C182.991 516.906 181.303 514.884 181.303 512.384C181.303 509.884 182.991 507.862 185.074 507.862C187.158 507.862 188.846 509.884 188.846 512.384Z" fill="white"/>
<path d="M92.3493 512.259C92.3493 505.653 97.3294 500.298 103.476 500.298C109.623 500.298 114.603 505.653 114.603 512.259H92.3493Z" fill="#005FB7"/>
<path d="M102.31 521.448C97.2347 521.448 93.1205 517.333 93.1205 512.258C93.1205 507.183 97.2347 503.069 102.31 503.069C107.385 503.069 111.499 507.183 111.499 512.258C111.499 517.333 107.385 521.448 102.31 521.448Z" fill="#005FB7"/>
<path d="M104.997 516.906C102.914 516.906 101.226 514.881 101.226 512.384C101.226 509.887 102.914 507.862 104.997 507.862C107.08 507.862 108.769 509.887 108.769 512.384C108.769 514.881 107.08 516.906 104.997 516.906Z" fill="white"/>
<path d="M96.8294 500.09H198.077V516.905H96.8294V500.09Z" fill="white"/>
<path d="M33.9229 500.09H119.792V516.905H33.9229V500.09Z" fill="#FF4C30"/>
<path d="M110.228 452.102H132.232V465.396H110.228V452.102Z" fill="#9E7C57"/>
<path d="M121.043 452.102H132.232V465.396H121.043V452.102Z" fill="#E0B07C"/>
<path d="M125.94 452.102H128.19V454.519H125.94V452.102Z" fill="#E0D4C8"/>
<path d="M98.0801 452.102H120.084V465.396H98.0801V452.102Z" fill="#9E7C57"/>
<path d="M108.894 452.102H120.084V465.396H108.894V452.102Z" fill="#E0B07C"/>
<path d="M113.812 452.102H116.062V454.519H113.812V452.102Z" fill="#E0D4C8"/>
<path d="M85.9326 452.102H107.937V465.396H85.9326V452.102Z" fill="#9E7C57"/>
<path d="M96.747 452.102H107.937V465.396H96.747V452.102Z" fill="#E0B07C"/>
<path d="M101.665 452.102H103.915V454.519H101.665V452.102Z" fill="#E0D4C8"/>
<path d="M59.094 452.102H95.8088V465.396H59.094V452.102Z" fill="#9E7C57"/>
<path d="M84.6193 452.102H95.8088V465.396H84.6193V452.102Z" fill="#E0B07C"/>
<path d="M89.5162 452.102H91.7666V454.519H89.5162V452.102Z" fill="#E0D4C8"/>
<path d="M110.228 466.188H132.232V479.482H110.228V466.188Z" fill="#9E7C57"/>
<path d="M121.043 466.188H132.232V479.482H121.043V466.188Z" fill="#E0B07C"/>
<path d="M125.94 466.188H128.19V468.605H125.94V466.188Z" fill="#E0D4C8"/>
<path d="M98.0801 466.188H120.084V479.482H98.0801V466.188Z" fill="#9E7C57"/>
<path d="M108.894 466.188H120.084V479.482H108.894V466.188Z" fill="#E0B07C"/>
<path d="M113.812 466.188H116.062V468.605H113.812V466.188Z" fill="#E0D4C8"/>
<path d="M85.9326 466.188H107.937V479.482H85.9326V466.188Z" fill="#9E7C57"/>
<path d="M96.747 466.188H107.937V479.482H96.747V466.188Z" fill="#E0B07C"/>
<path d="M101.665 466.188H103.915V468.605H101.665V466.188Z" fill="#E0D4C8"/>
<path d="M59.094 466.188H95.8088V479.482H59.094V466.188Z" fill="#9E7C57"/>
<path d="M84.6193 466.188H95.8088V479.482H84.6193V466.188Z" fill="#E0B07C"/>
<path d="M89.5162 466.188H91.7666V468.605H89.5162V466.188Z" fill="#E0D4C8"/>
<path d="M110.228 480.294H132.232V493.588H110.228V480.294Z" fill="#9E7C57"/>
<path d="M121.043 480.294H132.232V493.588H121.043V480.294Z" fill="#E0B07C"/>
<path d="M125.94 480.294H128.19V482.712H125.94V480.294Z" fill="#E0D4C8"/>
<path d="M98.0801 480.294H120.084V493.588H98.0801V480.294Z" fill="#9E7C57"/>
<path d="M108.894 480.294H120.084V493.588H108.894V480.294Z" fill="#E0B07C"/>
<path d="M113.812 480.294H116.062V482.712H113.812V480.294Z" fill="#E0D4C8"/>
<path d="M85.9326 480.294H107.937V493.588H85.9326V480.294Z" fill="#9E7C57"/>
<path d="M96.747 480.294H107.937V493.588H96.747V480.294Z" fill="#E0B07C"/>
<path d="M101.665 480.294H103.915V482.712H101.665V480.294Z" fill="#E0D4C8"/>
<path d="M59.094 480.294H95.8088V493.588H59.094V480.294Z" fill="#9E7C57"/>
<path d="M84.6193 480.294H95.8088V493.588H84.6193V480.294Z" fill="#E0B07C"/>
<path d="M89.5162 480.294H91.7666V482.712H89.5162V480.294Z" fill="#E0D4C8"/>
<path d="M132.149 466.196H59.0942V465.404H132.149V466.196Z" fill="#7B6043"/>
<path d="M132.149 480.291H59.0942V479.499H132.149V480.291Z" fill="#7B6043"/>
<path d="M73.7852 493.58H73.0767V452.114H73.7852V493.58Z" fill="#7B6043"/>
<path d="M66.2422 493.58H65.5337V452.114H66.2422V493.58Z" fill="#7B6043"/>
<path d="M94.4752 495.631H135.024V500.132H94.4752V495.631Z" fill="#664835"/>
<path d="M57.0728 495.631H90.8289V500.132H57.0728V495.631Z" fill="#664835"/>
<path d="M85.5991 495.631H90.0374V500.132H85.5991V495.631Z" fill="#D39A57"/>
<path d="M90.0368 493.568H137.045V495.631H90.0368V493.568Z" fill="#EDD1B0"/>
<path d="M90.0368 495.631H94.4751V500.132H90.0368V495.631Z" fill="#EDD1B0"/>
<path d="M114.125 495.631H118.563V500.132H114.125V495.631Z" fill="#EDD1B0"/>
<path d="M132.607 495.631H137.045V500.132H132.607V495.631Z" fill="#EDD1B0"/>
<path d="M109.686 495.631H114.125V500.132H109.686V495.631Z" fill="#D39A57"/>
<path d="M128.148 495.631H132.586V500.132H128.148V495.631Z" fill="#D39A57"/>
<path d="M55.6771 493.568H90.0374V495.631H55.6771V493.568Z" fill="#D39A57"/>
<path d="M55.6772 495.631H60.1155V500.132H55.6772V495.631Z" fill="#D39A57"/>
<path d="M73.2009 495.631H76.7017V500.132H73.2009V495.631Z" fill="#99682E"/>
<path d="M68.7626 495.631H73.2009V500.132H68.7626V495.631Z" fill="#D39A57"/>
<path d="M60.1156 495.631H63.6162V500.132H60.1156V495.631Z" fill="#99682E"/>
<path d="M268.923 507.82C268.923 515.342 275.028 521.468 282.571 521.468C290.114 521.468 296.22 515.363 296.22 507.82C296.22 500.298 290.114 494.172 282.571 494.172C275.028 494.172 268.923 500.277 268.923 507.82Z" fill="#005FB7"/>
<path d="M205.849 521.469C196.309 521.469 188.575 513.735 188.575 504.195C188.575 494.655 196.309 486.921 205.849 486.921C215.389 486.921 223.123 494.655 223.123 504.195C223.123 513.735 215.389 521.469 205.849 521.469Z" fill="#005FB7"/>
<path d="M205.849 521.469C196.309 521.469 188.575 513.735 188.575 504.195C188.575 494.655 196.309 486.921 205.849 486.921C215.389 486.921 223.123 494.655 223.123 504.195C223.123 513.735 215.389 521.469 205.849 521.469Z" fill="#005FB7"/>
<path d="M214.643 504.424H160.362V474.272C160.362 471.772 162.383 469.73 164.905 469.73H214.643V504.424Z" fill="#ABA395"/>
<path d="M268.531 512.264H163.7V500.303H268.531V512.264Z" fill="#005FB7"/>
<path d="M197.764 504.194C197.764 488.212 188.262 475.272 173.406 475.272H159.903V477.794C150.506 482.315 143.963 492.421 143.963 504.194H159.903V504.424H170.863V504.194H197.764Z" fill="white"/>
<path d="M213.373 504.194H195.537V500.089H213.373V504.194Z" fill="white"/>
<path d="M241.168 461.02C241.168 467.125 236.229 472.064 230.124 472.064C224.019 472.064 219.081 467.125 219.081 461.02C219.081 454.936 224.019 449.977 230.124 449.977C236.229 449.977 241.168 454.936 241.168 461.02Z" fill="#005FB7"/>
<path d="M213.371 504.257H283.446V458.749H225.04C218.58 458.749 213.35 463.979 213.35 470.439V504.257H213.371Z" fill="#E0D8C6"/>
<path d="M254.003 507.82C254.003 498.027 246.627 490.109 237.521 490.109C228.415 490.109 221.039 498.048 221.039 507.82H254.003Z" fill="#005FB7"/>
<path d="M225.603 507.821C225.603 515.343 231.708 521.469 239.251 521.469C246.794 521.469 252.899 515.364 252.899 507.821C252.899 500.298 246.794 494.172 239.251 494.172C231.708 494.172 225.603 500.278 225.603 507.821Z" fill="#005FB7"/>
<path d="M162.528 521.469C152.988 521.469 145.255 513.735 145.255 504.195C145.255 494.655 152.988 486.921 162.528 486.921C172.069 486.921 179.802 494.655 179.802 504.195C179.802 513.735 172.069 521.469 162.528 521.469Z" fill="#005FB7"/>
<path d="M225.603 507.821C225.603 515.343 231.708 521.469 239.251 521.469C246.794 521.469 252.899 515.364 252.899 507.821C252.899 500.298 246.794 494.172 239.251 494.172C231.708 494.172 225.603 500.278 225.603 507.821Z" fill="#005FB7"/>
<path d="M235.271 514.717C232.175 514.717 229.665 511.713 229.665 508.008C229.665 504.302 232.175 501.298 235.271 501.298C238.366 501.298 240.876 504.302 240.876 508.008C240.876 511.713 238.366 514.717 235.271 514.717Z" fill="white"/>
<path d="M187.262 504.194C187.262 488.212 175.218 475.272 160.361 475.272C145.505 475.272 133.461 488.212 133.461 504.194H187.262Z" fill="#E0D8C6"/>
<path d="M181.219 504.194C181.219 491.796 171.884 481.753 160.361 481.753C148.838 481.753 139.503 491.796 139.503 504.194H181.219Z" fill="#005FB7"/>
<path d="M150.422 504.424C150.422 509.112 153.589 512.904 157.507 512.904C161.424 512.904 164.591 509.112 164.591 504.424C164.591 499.735 161.424 495.943 157.507 495.943C153.589 495.943 150.422 499.735 150.422 504.424Z" fill="white"/>
<path d="M295.219 458.749H266.61C260.942 458.749 256.337 463.354 256.337 469.022V512.259H305.471V469.022C305.471 463.354 300.887 458.749 295.219 458.749Z" fill="white"/>
<path d="M193.868 449.998H185.991C183.366 449.998 181.24 452.123 181.24 454.748V469.73H198.639V454.748C198.618 452.123 196.493 449.998 193.868 449.998Z" fill="#005FB7"/>
<path d="M210.402 469.739H181.23V463.363H210.402V469.739Z" fill="#005FB7"/>
<path d="M188.596 469.73H213.371V500.09C213.371 500.09 217.289 469.73 188.596 469.73Z" fill="white"/>
<path d="M315.235 512.255H256.329V495.939H315.235V512.255Z" fill="#005FB7"/>
<path d="M271.257 471.084C271.257 473.064 269.652 474.668 267.673 474.668C265.693 474.668 264.089 473.064 264.089 471.084C264.089 469.105 265.693 467.5 267.673 467.5C269.652 467.5 271.257 469.105 271.257 471.084Z" fill="#E0D8C6"/>
<path d="M301.345 471.084C301.345 473.064 299.741 474.668 297.761 474.668C295.782 474.668 294.178 473.064 294.178 471.084C294.178 469.105 295.782 467.5 297.761 467.5C299.741 467.5 301.345 469.105 301.345 471.084Z" fill="#E0D8C6"/>
</svg>
